<svg width="134" height="134" viewBox="0 0 134 134" fill="none" xmlns="http://www.w3.org/2000/svg">
<rect x="0.543564" y="0.345779" width="133.416" height="133.416" rx="25.1729" fill="#293FCC" fill-opacity="0.1"/>
<g clip-path="url(#clip0_204_472)">
<path d="M93.9872 67.2954L98.4384 71.7391L77.6764 92.5076L66.6436 81.4773L71.0949 77.0336L77.6764 83.5888L93.9872 67.2954ZM58.6949 81.4773L68.2333 90.9318H36.4384V84.6288C36.4384 77.6639 47.821 72.0227 61.8743 72.0227L67.8836 72.3694L58.6949 81.4773ZM61.8743 40.5076C65.2474 40.5076 68.4822 41.8357 70.8673 44.1998C73.2524 46.5639 74.5923 49.7703 74.5923 53.1136C74.5923 56.457 73.2524 59.6634 70.8673 62.0275C68.4822 64.3916 65.2474 65.7197 61.8743 65.7197C58.5013 65.7197 55.2665 64.3916 52.8814 62.0275C50.4963 59.6634 49.1564 56.457 49.1564 53.1136C49.1564 49.7703 50.4963 46.5639 52.8814 44.1998C55.2665 41.8357 58.5013 40.5076 61.8743 40.5076Z" fill="#293FCC"/>
</g>
<defs>
<clipPath id="clip0_204_472">
<rect width="55.3804" height="55.3804" fill="white" transform="translate(40 39.4357)"/>
</clipPath>
</defs>
</svg>
