<svg width="134" height="134" viewBox="0 0 134 134" fill="none" xmlns="http://www.w3.org/2000/svg">
<rect x="0.276611" y="0.345764" width="133.416" height="133.416" rx="25.1729" fill="#293FCC" fill-opacity="0.1"/>
<path d="M82.64 41.4756H49.36C47.072 41.4756 45.2 43.3476 45.2 45.6356V87.2356C45.2 89.5236 47.072 91.3956 49.36 91.3956H82.64C84.928 91.3956 86.8 89.5236 86.8 87.2356V45.6356C86.8 43.3476 84.928 41.4756 82.64 41.4756ZM57.68 83.0756C57.68 84.2196 56.744 85.1556 55.6 85.1556H51.44C50.296 85.1556 49.36 84.2196 49.36 83.0756V82.0356C49.36 80.8916 50.296 79.9556 51.44 79.9556H55.6C56.744 79.9556 57.68 80.8916 57.68 82.0356V83.0756ZM57.68 74.7556C57.68 75.8996 56.744 76.8356 55.6 76.8356H51.44C50.296 76.8356 49.36 75.8996 49.36 74.7556V73.7156C49.36 72.5716 50.296 71.6356 51.44 71.6356H55.6C56.744 71.6356 57.68 72.5716 57.68 73.7156V74.7556ZM57.68 66.4356C57.68 67.5796 56.744 68.5156 55.6 68.5156H51.44C50.296 68.5156 49.36 67.5796 49.36 66.4356V65.3956C49.36 64.2516 50.296 63.3156 51.44 63.3156H55.6C56.744 63.3156 57.68 64.2516 57.68 65.3956V66.4356ZM70.16 83.0756C70.16 84.2196 69.224 85.1556 68.08 85.1556H63.92C62.776 85.1556 61.84 84.2196 61.84 83.0756V82.0356C61.84 80.8916 62.776 79.9556 63.92 79.9556H68.08C69.224 79.9556 70.16 80.8916 70.16 82.0356V83.0756ZM70.16 74.7556C70.16 75.8996 69.224 76.8356 68.08 76.8356H63.92C62.776 76.8356 61.84 75.8996 61.84 74.7556V73.7156C61.84 72.5716 62.776 71.6356 63.92 71.6356H68.08C69.224 71.6356 70.16 72.5716 70.16 73.7156V74.7556ZM70.16 66.4356C70.16 67.5796 69.224 68.5156 68.08 68.5156H63.92C62.776 68.5156 61.84 67.5796 61.84 66.4356V65.3956C61.84 64.2516 62.776 63.3156 63.92 63.3156H68.08C69.224 63.3156 70.16 64.2516 70.16 65.3956V66.4356ZM82.64 83.0756C82.64 84.2196 81.704 85.1556 80.56 85.1556H76.4C75.256 85.1556 74.32 84.2196 74.32 83.0756V82.0356C74.32 80.8916 75.256 79.9556 76.4 79.9556H80.56C81.704 79.9556 82.64 80.8916 82.64 82.0356V83.0756ZM82.64 74.7556C82.64 75.8996 81.704 76.8356 80.56 76.8356H76.4C75.256 76.8356 74.32 75.8996 74.32 74.7556V73.7156C74.32 72.5716 75.256 71.6356 76.4 71.6356H80.56C81.704 71.6356 82.64 72.5716 82.64 73.7156V74.7556ZM82.64 66.4356C82.64 67.5796 81.704 68.5156 80.56 68.5156H76.4C75.256 68.5156 74.32 67.5796 74.32 66.4356V65.3956C74.32 64.2516 75.256 63.3156 76.4 63.3156H80.56C81.704 63.3156 82.64 64.2516 82.64 65.3956V66.4356ZM82.64 57.0756C82.64 58.2196 81.704 59.1556 80.56 59.1556H51.44C50.296 59.1556 49.36 58.2196 49.36 57.0756V48.7556C49.36 47.6116 50.296 46.6756 51.44 46.6756H80.56C81.704 46.6756 82.64 47.6116 82.64 48.7556V57.0756Z" fill="#293FCC"/>
</svg>
