<svg width="134" height="135" viewBox="0 0 134 135" fill="none" xmlns="http://www.w3.org/2000/svg">
<rect x="0.276611" y="0.972412" width="133.416" height="133.416" rx="25.1729" fill="#293FCC" fill-opacity="0.1"/>
<path d="M33 42.4357H100V92.4357H33V42.4357ZM93.3 85.769V49.1023H39.7V85.769H93.3ZM83.25 52.4357C83.25 54.2038 83.9559 55.8995 85.2124 57.1497C86.4689 58.4 88.173 59.1023 89.95 59.1023V75.769C88.173 75.769 86.4689 76.4714 85.2124 77.7216C83.9559 78.9719 83.25 80.6676 83.25 82.4357H49.75C49.75 80.6676 49.0441 78.9719 47.7876 77.7216C46.5311 76.4714 44.827 75.769 43.05 75.769V59.1023C44.827 59.1023 46.5311 58.4 47.7876 57.1497C49.0441 55.8995 49.75 54.2038 49.75 52.4357H83.25ZM83.25 69.1023V65.769C83.25 62.1023 81.0055 59.1023 78.225 59.1023C75.4445 59.1023 73.2 62.1023 73.2 65.769V69.1023C73.2 72.769 75.4445 75.769 78.225 75.769C81.0055 75.769 83.25 72.769 83.25 69.1023ZM78.225 62.4357C78.6692 62.4357 79.0953 62.6113 79.4094 62.9238C79.7235 63.2364 79.9 63.6603 79.9 64.1023V70.769C79.9 71.211 79.7235 71.635 79.4094 71.9475C79.0953 72.2601 78.6692 72.4357 78.225 72.4357C77.7808 72.4357 77.3547 72.2601 77.0406 71.9475C76.7265 71.635 76.55 71.211 76.55 70.769V64.1023C76.55 63.6603 76.7265 63.2364 77.0406 62.9238C77.3547 62.6113 77.7808 62.4357 78.225 62.4357ZM69.85 69.1023V65.769C69.85 62.1023 67.6055 59.1023 64.825 59.1023C62.0445 59.1023 59.8 62.1023 59.8 65.769V69.1023C59.8 72.769 62.0445 75.769 64.825 75.769C67.6055 75.769 69.85 72.769 69.85 69.1023ZM64.825 62.4357C65.2692 62.4357 65.6953 62.6113 66.0094 62.9238C66.3235 63.2364 66.5 63.6603 66.5 64.1023V70.769C66.5 71.211 66.3235 71.635 66.0094 71.9475C65.6953 72.2601 65.2692 72.4357 64.825 72.4357C64.3808 72.4357 63.9547 72.2601 63.6406 71.9475C63.3265 71.635 63.15 71.211 63.15 70.769V64.1023C63.15 63.6603 63.3265 63.2364 63.6406 62.9238C63.9547 62.6113 64.3808 62.4357 64.825 62.4357ZM53.1 75.769H56.45V59.1023H53.1L49.75 60.769V64.1023L53.1 62.4357V75.769Z" fill="#293FCC"/>
</svg>
